<svg width="72" height="73" viewBox="0 0 72 73" fill="none" xmlns="http://www.w3.org/2000/svg">
<path d="M54 60.5C60.6274 60.5 66 55.1274 66 48.5C66 41.8726 60.6274 36.5 54 36.5C47.3726 36.5 42 41.8726 42 48.5C42 55.1274 47.3726 60.5 54 60.5Z" stroke="#B71212" stroke-width="2.5"/>
<path d="M18 60.5C24.6274 60.5 30 55.1274 30 48.5C30 41.8726 24.6274 36.5 18 36.5C11.3726 36.5 6 41.8726 6 48.5C6 55.1274 11.3726 60.5 18 60.5Z" stroke="#B71212" stroke-width="2.5"/>
<path opacity="0.5" d="M42 49.142L40.032 48.44C37.4245 47.5098 34.5755 47.5098 31.968 48.44L30 49.142M6 48.5L8.289 23.315C8.634 19.523 8.808 17.627 9.918 16.226C11.028 14.825 12.834 14.222 16.446 13.016L18 12.5M66 48.5L63.711 23.315C63.366 19.523 63.195 17.627 62.085 16.226C60.975 14.825 59.166 14.222 55.554 13.016L54 12.5" stroke="#B71212" stroke-width="2.5" stroke-linecap="round"/>
</svg>