<svg width="35" height="34" viewBox="0 0 35 34" fill="none" xmlns="http://www.w3.org/2000/svg">
<path fill-rule="evenodd" clip-rule="evenodd" d="M5.54688 12.8802C5.54688 9.70866 6.80677 6.66701 9.04939 4.42439C11.292 2.18177 14.3337 0.921875 17.5052 0.921875C20.6768 0.921875 23.7184 2.18177 25.961 4.42439C28.2036 6.66701 29.4635 9.70866 29.4635 12.8802V14.6483C32.3609 15.0635 34.5885 17.5559 34.5885 20.5677V20.9948C34.5883 21.7356 34.4399 22.4688 34.1519 23.1513C33.864 23.8338 33.4424 24.4518 32.9119 24.9688C32.3815 25.4859 31.753 25.8916 31.0633 26.162C30.3737 26.4325 29.6369 26.5621 28.8964 26.5435C27.6322 30.1651 24.4171 32.6063 20.9475 33.2248C20.1446 33.5186 19.1947 33.3802 18.3594 33.3802C17.6798 33.3802 17.028 33.1102 16.5474 32.6297C16.0669 32.1491 15.7969 31.4973 15.7969 30.8177C15.7969 30.1381 16.0669 29.4863 16.5474 29.0057C17.028 28.5252 17.6798 28.2552 18.3594 28.2552H20.0677C20.4688 28.2551 20.8644 28.3492 21.2225 28.5299C21.5807 28.7106 21.8914 28.9729 22.1297 29.2956C24.3437 28.2415 26.0469 26.0156 26.0469 23.1302V12.8802C26.0469 10.6148 25.147 8.44221 23.5451 6.84034C21.9432 5.23846 19.7706 4.33854 17.5052 4.33854C15.2398 4.33854 13.0672 5.23846 11.4653 6.84034C9.86346 8.44221 8.96354 10.6148 8.96354 12.8802V23.5573C8.96354 24.3502 8.64857 25.1106 8.08791 25.6712C7.52726 26.2319 6.76684 26.5469 5.97396 26.5469C4.50145 26.5469 3.08926 25.9619 2.04804 24.9207C1.00682 23.8795 0.421875 22.4673 0.421875 20.9948V20.5677C0.421506 19.1297 0.939431 17.7397 1.88071 16.6525C2.822 15.5653 4.12358 14.8538 5.54688 14.6483V12.8802ZM5.54688 18.1504C5.04705 18.3271 4.61434 18.6545 4.30838 19.0875C4.00242 19.5204 3.83826 20.0376 3.83854 20.5677V20.9948C3.83854 22.0283 4.57312 22.891 5.54688 23.0875V18.1504ZM29.4635 18.1504V23.0875C30.4373 22.8893 31.1719 22.0283 31.1719 20.9948V20.5677C31.1722 20.0376 31.008 19.5204 30.702 19.0875C30.3961 18.6545 29.9634 18.3271 29.4635 18.1504Z" fill="white"/>
</svg>