<svg width="23" height="23" viewBox="0 0 23 23" fill="none" xmlns="http://www.w3.org/2000/svg">
<g clip-path="url(#clip0_10450_8560)">
<rect width="21.3913" height="21.3913" transform="translate(0.804199 0.804688)" fill="white"/>
<path d="M15.7915 20.1693C14.9929 20.1693 14.3141 19.9019 13.755 19.3672C13.196 18.8325 12.9165 18.1832 12.9165 17.4193C12.9165 17.3276 12.9405 17.1137 12.9884 16.7776L6.25609 13.0193C6.00053 13.2484 5.70505 13.4281 5.36963 13.5583C5.03421 13.6884 4.67484 13.7532 4.2915 13.7526C3.49289 13.7526 2.81407 13.4852 2.25505 12.9505C1.69602 12.4158 1.4165 11.7665 1.4165 11.0026C1.4165 10.2387 1.69602 9.58941 2.25505 9.05469C2.81407 8.51997 3.49289 8.2526 4.2915 8.2526C4.67484 8.2526 5.03421 8.31769 5.36963 8.44785C5.70505 8.57802 6.00053 8.75738 6.25609 8.98594L12.9884 5.2276C12.9564 5.12066 12.9366 5.01769 12.929 4.91869C12.9213 4.81969 12.9171 4.70877 12.9165 4.58594C12.9165 3.82205 13.196 3.17274 13.755 2.63802C14.3141 2.1033 14.9929 1.83594 15.7915 1.83594C16.5901 1.83594 17.2689 2.1033 17.828 2.63802C18.387 3.17274 18.6665 3.82205 18.6665 4.58594C18.6665 5.34983 18.387 5.99913 17.828 6.53385C17.2689 7.06858 16.5901 7.33594 15.7915 7.33594C15.4082 7.33594 15.0488 7.27085 14.7134 7.14069C14.378 7.01052 14.0825 6.83116 13.8269 6.6026L7.09463 10.3609C7.12657 10.4679 7.1467 10.5712 7.155 10.6708C7.16331 10.7704 7.16714 10.881 7.1665 11.0026C7.16586 11.1242 7.16203 11.2351 7.155 11.3354C7.14798 11.4356 7.12785 11.5385 7.09463 11.6443L13.8269 15.4026C14.0825 15.1734 14.378 14.9941 14.7134 14.8645C15.0488 14.735 15.4082 14.6699 15.7915 14.6693C16.5901 14.6693 17.2689 14.9366 17.828 15.4714C18.387 16.0061 18.6665 16.6554 18.6665 17.4193C18.6665 18.1832 18.387 18.8325 17.828 19.3672C17.2689 19.9019 16.5901 20.1693 15.7915 20.1693ZM15.7915 18.3359C16.063 18.3359 16.2908 18.2482 16.4748 18.0729C16.6588 17.8975 16.7505 17.6796 16.7498 17.4193C16.7492 17.1589 16.6572 16.9414 16.4738 16.7666C16.2905 16.5918 16.063 16.5038 15.7915 16.5026C15.52 16.5014 15.2925 16.5894 15.1092 16.7666C14.9258 16.9438 14.8338 17.1614 14.8332 17.4193C14.8325 17.6772 14.9245 17.895 15.1092 18.0729C15.2938 18.2507 15.5213 18.3384 15.7915 18.3359ZM4.2915 11.9193C4.56303 11.9193 4.7908 11.8313 4.9748 11.6553C5.1588 11.4793 5.25048 11.2617 5.24984 11.0026C5.2492 10.7435 5.1572 10.5259 4.97384 10.3499C4.79048 10.1739 4.56303 10.0859 4.2915 10.0859C4.01998 10.0859 3.79253 10.1739 3.60917 10.3499C3.42581 10.5259 3.33381 10.7435 3.33317 11.0026C3.33253 11.2617 3.42453 11.4796 3.60917 11.6562C3.79381 11.8328 4.02125 11.9205 4.2915 11.9193ZM15.7915 5.5026C16.063 5.5026 16.2908 5.4146 16.4748 5.2386C16.6588 5.0626 16.7505 4.84505 16.7498 4.58594C16.7492 4.32683 16.6572 4.10927 16.4738 3.93327C16.2905 3.75727 16.063 3.66927 15.7915 3.66927C15.52 3.66927 15.2925 3.75727 15.1092 3.93327C14.9258 4.10927 14.8338 4.32683 14.8332 4.58594C14.8325 4.84505 14.9245 5.06291 15.1092 5.23952C15.2938 5.41613 15.5213 5.50383 15.7915 5.5026Z" fill="#B71212"/>
</g>
<defs>
<clipPath id="clip0_10450_8560">
<rect width="21.3913" height="21.3913" fill="white" transform="translate(0.804199 0.804688)"/>
</clipPath>
</defs>
</svg>
